<svg xmlns="http://www.w3.org/2000/svg" viewBox="0 0 1000 800"><defs><style>.cls-1,.cls-5{fill:none;}.cls-1,.cls-2{stroke:#442257;}.cls-1,.cls-2,.cls-3,.cls-4,.cls-5{stroke-linecap:round;stroke-linejoin:round;stroke-width:4px;}.cls-2{fill:#442257;}.cls-3{fill:#abdddf;stroke:#abdddf;}.cls-4{fill:#f15d4a;stroke:#f15d4a;}.cls-5{stroke:#fab550;}</style></defs><g id="Layer_2" data-name="Layer 2"><path class="cls-1" d="M552.13,167.92c2.22.37,6.63.19,9.58,1.35a5.42,5.42,0,0,1,3.75,5.25c-.26,6.42-8.83,6.51-13.19,8.33a129.59,129.59,0,0,0,.3,16.84c.36,5-.63,9.25,3.69,12.81,3,2.46,8.58,4.49,12.24,5.26,9.83,2.06,17.59,3.82,27.36,6.61,5.52,1.58,17.32,6.35,22.58,12.29"/><path class="cls-1" d="M445.87,227.68c5.27-4.32,13.41-6.15,19.77-8.09a130,130,0,0,1,13.27-3.32H479a11.67,11.67,0,0,0,9.52-11.37c.26-36.86,2-50.78,4.73-60.57,2.42-8.73,4-18,7.16-26.37,3.82-10.25,15.54-11.82,25.44-12.45,8.39-.53,17.52.43,24.83,4.75,2.44,1.44,4,5,4.37,7.78"/><path class="cls-1" d="M563.6,129.7c.15-4.91-2.68-9.28-6.79-10.41a21.71,21.71,0,0,0-8.82-.62c-4.67.78-8.89,9.34-5.07,14.31-7-1.7,1.15,11.22,1.32,12.18.46,2.6-3.28,10.62,2.52,9.63-.52,4.72.39,8.81,3.85,11.82,4.52,3.93,8.1,1.26,9.81-4.66a33,33,0,0,0,.88-9.94c0-1.2-.73-1.75-.51-3.09.19-1.19,1.88-3.08,2.26-4.45,1.16-4.15.53-9.38.53-13.72C563.58,130.41,563.59,130.06,563.6,129.7Z"/><path class="cls-1" d="M497.38,124.37c-5.09-.89-9.35,5-7.78,9.48-5.4,3.5-2.92,10.44,2.26,11.87"/><line class="cls-1" x1="525.48" y1="147.86" x2="525.95" y2="144.86"/><path class="cls-1" d="M509.46,158.12c-3.94.3-7.59,1.51-10.32,4.86s-2.61,7.84-1.38,11.63,3.25,7.06,7.11,5.36c2.64-1.16,5-5.1,5.05-7.85.24,2.56,3.72,4.77,6.06,5.08,5.36.71,7.39-5.9,7.27-10.33,3,4,13.4,7.29,12.45-1.2-.3-2.64-2.48-4.34-4.76-5.45C526.49,158.07,514.49,157.73,509.46,158.12Z"/><path class="cls-1" d="M515.41,183.22c6.29.61,9.57-2.93,10.89-5.58"/><path class="cls-1" d="M477.51,399.88c0-8.71.79-16.67.74-25.17l-12.88-.22c.1,6.16-.74,16.21-.74,23.4"/><path class="cls-1" d="M604.82,403.19A68,68,0,0,0,605.1,384c-.48-3.53-1.53-9.3-1.53-9.3l-13.46.37c1.89,9.87.3,19.08,0,29.22"/><path class="cls-1" d="M551.51,378.22c9.13,0,29.5-.07,38.6-.26"/><path class="cls-1" d="M550.81,400.06c10.36,0,28.32,1.13,38.56.4"/><path class="cls-1" d="M605.25,377.8c5.63,0,9.42.25,15,0,2.19-.09,8.77-.62,10.83-.76,0,0,1,17.45.81,21.14-4.88,2.12-10.38,2-15.73,2.35-1.9.13-9.9-.14-9.9-.14"/><path class="cls-1" d="M514.27,378.8c-6.46.14-32.64-.39-35.7-1.18"/><path class="cls-1" d="M477.51,397.31c5.73,1.86,13.42,1.66,19.52,2.21,3.75.35,13.42.39,17.24.24"/><path class="cls-1" d="M463.16,396.57c-5.28.38-11-.81-16-1.31,0,0-.22-14.28-.22-19.35"/><path class="cls-1" d="M463.16,377.07c-2,0-15.19-.6-15.19-.6"/><path class="cls-1" d="M644.19,369.18c3.08,22.7,10.11,81.91,10.92,101.37,1.11,26.55.57,56-10.52,80.9-2.57,5.78-8.88,12.11-12.79,17.06"/><path class="cls-1" d="M644.09,516.17c0,4.19-1.66,24.83-8.43,25.32"/><path class="cls-1" d="M421.69,382.87c-.07,5.44-1.46,37.74-1.91,46.94-1,21.52.32,43.38,1,64.87a291.19,291.19,0,0,0,4.14,39.38c1.55,9,2.83,17.76,6.89,25.93a40,40,0,0,0,10.37,12.43"/><path class="cls-1" d="M433.92,530.14c1,3,1.95,21.54,7.52,20.23"/><path class="cls-1" d="M448.81,396.63c-1.48,46.59-6.83,91.34-5.5,138.1.32,11.06-1.1,21.89-1.12,32.95-.11,47,1.44,91.89,6.27,138.73.48,4.72-.76,8.25,4,10.27,5.69,2.4,43.3,3.24,51.38,1.41,6.13-1.39,5.54-3.85,6.54-9.77,4.76-28.4,3.73-55.36,5.54-83.71.9-14.15,1.77-54.62,2.33-68.52,1.42-35.49,7.3-125.71,7.87-135.2"/><path class="cls-1" d="M520.93,418.28c6.92,3,16.8,2.09,23.92.52"/><path class="cls-1" d="M540.43,420.49c0,17.29,1.05,34.55,2.13,51.79.69,11.14.73,22.29,1.62,33.43,2.27,28.39,4.2,57.79,4.34,86.26.18,34.22,1.21,67.36,2.27,101.68.35,11.54-2.24,26.57,6.73,25.91,12.7-.94,57.14,1.14,62-2.3,2.58-1.83,4.27-33.7,5.28-46,2.92-35.09,5.28-72.84,7-108.1,1.34-27.59,1.93-55.13,2.86-82.72.45-13.48-1-27-1.41-40.43-.24-7.64-3.38-40.18-3.38-40.18"/><path class="cls-2" d="M561.16,732.79c2.27-.22,4.61-.17,6.76-.45a101.27,101.27,0,0,1,13.6-.4c8.83,0,17.66-.36,26.48.24,4,.27,15.69.2,15.91,8.68,0,0-5,0-7.57,0-4.91.1-9.78,0-14.67.09-11.77.31-23.54-.16-35.26.23-3.08.1-9.51.06-9.51.06,0-2.26,0-5.39.18-7.65A15.84,15.84,0,0,1,561.16,732.79Z"/><path class="cls-2" d="M503.08,731.51c-2.23-.24-4.53-.19-6.64-.51-4.4-.67-8.94-.47-13.35-.45-8.67.05-17.33.66-26,1.33-3.89.3-15.42-1-15.57,8.57,2.31,1.46,44.93.28,56.44.72,3,.11,9.34.12,9.34.12,0-2.56-.07-6.26-.24-8.81A13.76,13.76,0,0,0,503.08,731.51Z"/><line class="cls-1" x1="627" y1="376.13" x2="626.85" y2="369.8"/><rect class="cls-1" x="514.27" y="375.18" width="37.24" height="27.02" rx="4.57"/><line class="cls-1" x1="504" y1="148.2" x2="504.47" y2="145.2"/><line class="cls-1" x1="355.03" y1="365.5" x2="332.22" y2="372.86"/><path class="cls-1" d="M362.58,398.83c-6.85,2.44-17.77,5.14-23.74,7.67"/><line class="cls-1" x1="350.18" y1="372.71" x2="356.72" y2="370.87"/><path class="cls-1" d="M358.92,247.39a242.26,242.26,0,0,0-34.06,17.87"/><path class="cls-1" d="M370.48,280.5c-11.4,6-35.11,18.4-35.11,18.4"/><path class="cls-1" d="M364.23,275.72a17.7,17.7,0,0,0,4-1.84"/><path class="cls-3" d="M459.9,368.45c-4.79,3.34-10.12,5.34-15.8,7.12-8,2.48-16,5.27-24,7.59-9.1,2.62-18.66,5.3-27.77,7.64-5.17,1.33-14,3.08-14,3.08l-10,1.43-4-29.81Z"/><path class="cls-3" d="M413.53,258.06c-6.46,2.3-12.4,7.28-18.55,10.45-4.08,2.11-8.09,4.51-12.31,6.17,1.57,3.54-6.25,7.8-5.2,1.82.12,1.62-.9,6.23-3.13,6.22-1.76,0-1.9-2.55-2.34-3.9-1.85-5.66-4.62-11-6.67-16.67-1.81-5-4.8-9.59-5.89-14.81-.2-.92-.82-2.69-.4-3.65.75-1.7,4.22-3.23,5.12-.91,0-2.15,2.09-6.19,6.32-4.37,0,0,10-5.86,13.1-7.22a179.94,179.94,0,0,1,24.36-8.84c8.3-2.32,17.36.72,25.61,2,7.51,1.2,15.07,3.09,22.32,5,3.14.81,8.3,2.06,8.44,5.15"/><path class="cls-1" d="M433.55,224.39c1.8,1.4,17.75,7.74,16.5,9.72"/><path class="cls-2" d="M411,234.66v2.83c6.55.29,11.7,2.16,11.31,6.21-.26,2.77-6.22,5.59-11.31,7.61V346a33.1,33.1,0,0,1,6.8-.75c6.13,0,5.33,4.74,1.56,8.67-2.45,2.55-5.46,5.5-8.36,8.25v5.07H649.5V234.66Z"/><path class="cls-4" d="M518.41,297.1c-2.87-2.2-6-4.75-7.53-8-3-6.51-1.53-15.87,7.63-13.8,4.7,1.05,7.32,5,11,7.33,3-5.45,5-12.2,11.78-11.22s6.37,8.64,4.16,15.4a56.94,56.94,0,0,1-8.62,16.07,5.66,5.66,0,0,1-7.21,1.4A106.28,106.28,0,0,1,518.41,297.1Z"/><path class="cls-5" d="M499.3,283.1c-1.28-5.64-3.6-13.48,3.31-16.5,5.43-2.37,13.49,4.69,16.38-2.92,2.79-7.38-1.55-16.62-9.54-17.68-6.62-.89-20,0-25,5.21-6.45,6.7-2.78,19.14-2,27.17.59,6.28-.81,15.5,3.84,20.52,2.69,2.91,12.79,6.77,16.08,3.16C505.93,298.19,500.24,287.25,499.3,283.1Z"/><path class="cls-5" d="M549,262.25c-4-2-8.47-.62-12.11,1s-8-.79-7.38-6.37,7-11.2,17-12.06c15.23-1.31,28.67,5.82,29.78,21.83.64,9.17.88,24.2-5.39,31.88-2,2.5-8.71,5.86-12.11,5.07s-3.7-4.39-3.86-7.6c-.34-7.13.95-14.37.38-21.49a24.33,24.33,0,0,0-1.48-7.23A9.69,9.69,0,0,0,549,262.25Z"/><path class="cls-5" d="M471.79,299.29a67.93,67.93,0,0,0,8.09,8.09"/><path class="cls-5" d="M472.74,312.44c2,2.11,3.86,4.19,6.19,5.29"/><path class="cls-5" d="M473.69,323.29a15.53,15.53,0,0,0,4.44,3.51"/><path class="cls-5" d="M478.35,337a9.54,9.54,0,0,1-3-1.9"/><path class="cls-5" d="M589.38,299.29c-1.49,2.66-7,6.5-9.48,8.15"/><path class="cls-5" d="M590.48,311.07a23.82,23.82,0,0,1-7.42,6.18"/><path class="cls-5" d="M589.16,323.59a38.65,38.65,0,0,1-4.47,3.57"/><path class="cls-5" d="M585,336.41a8.72,8.72,0,0,0,1.93-1.06"/><path class="cls-5" d="M490.18,345.28c-1.35-6.09-1.56-12.58-1.81-18.8-.16-4.1-1.29-10.8,2.33-13.78,3.19-2.62,6.23-.79,9.56-.21,3,.52,6,0,9-.24,7.18-.48,13.05,4,6.63,9.95-6.22,5.78-12.28,11.34-14.59,19.85C499.62,348.33,491.53,351.37,490.18,345.28Z"/><path class="cls-5" d="M527.71,328c-1.31-4.11,1.6-7.19,5.54-8.21,5.49-1.42,10.18,2.9,15.3,3.08,6.45.23,4.14-4.34,4.54-8.2.35-3.43,3.21-4.18,6.47-4,8.74.52,13.88,8.19,14.13,16.36.29,9.25-7.67,17.48-16.45,19.31-7.45,1.56-17.4-1.48-22.54-6.88A31.64,31.64,0,0,1,527.71,328Z"/><path class="cls-5" d="M503.36,358.48c0-9.08,7.76-18.14,15.67-15.79,5.9,1.74,8.73,8.14,14.47,10.06,1.68.56,13.12,1.33,8.86,6.07-1.16,1.29-8.4.44-9.78.44-4.83,0-9.59-.17-14.37-.37S503.36,358.48,503.36,358.48Z"/><path class="cls-1" d="M392.26,263.22c2.77-2,4.31-5.32,6.81-7.42,1.53-1.27,3.75-1.38,5.56-2.1,3.6-1.42,17.26-5.77,17.66-10,.56-5.8-10.24-7.13-20.26-5.74"/><path class="cls-3" d="M405.44,367.34c4.05-3.69,9.78-9.12,13.9-13.41,3.77-3.93,4.57-8.65-1.56-8.67s-11.63,2-17.49,3.91c-8.63,2.86-17.24,5.43-25.88,8.25-2.65.87-4.24,1.38-6.64.88-1.78-.37-.47-2.14-3.21-1.11a4.22,4.22,0,0,0-2.62,3.79c-2.33-5.77-5.79.37-5.44,3.79.42,4.12,1,7.28,1.6,11.34.81,5.51,1.72,11.37,3.55,16.62.93,2.67,1.89,7.34,4,9.3,3.94,3.74,6.42-1.59,6.43-5.61,1.38,4.57,5.69,1.06,6.23-2.54"/><path class="cls-1" d="M362.73,359.53c.38,1.64.59,4.73,1.1,5.52"/><path class="cls-1" d="M375.63,377.64c.94,3.54,3.35,13,3.59,16.24"/><line class="cls-1" x1="559.66" y1="732.86" x2="559.66" y2="720.56"/><path class="cls-1" d="M604,731.15a115,115,0,0,0,1.15-12"/><path class="cls-1" d="M502.27,731.15c0-3.63,0-12,0-12"/><path class="cls-1" d="M460,732.72V719"/></g></svg>