<svg xmlns="http://www.w3.org/2000/svg" viewBox="0 0 1000 800"><defs><style>.cls-1{fill:#abdddf;}.cls-2,.cls-5{fill:#442257;}.cls-3,.cls-7{fill:#fab550;}.cls-4{fill:none;}.cls-4,.cls-5{stroke:#442257;}.cls-4,.cls-5,.cls-7{stroke-linecap:round;stroke-linejoin:round;stroke-width:4px;}.cls-6{fill:#f9570f;}.cls-7{stroke:#fab550;}</style></defs><g id="Layer_2" data-name="Layer 2"><path class="cls-1" d="M621.27,420.6c-9.11-5.73-18-9.3-21.64-20.12a6.07,6.07,0,0,1-.3-1.44c-.29-.08-3.53-3.62-3.43-5.68-.31-.83,3.67-2.13,3.45-3-.37-1.46-3.32-6.12-2.52-7.5,0-.38,5.08-.59,6.71-.23,6.79,1.54,13.31,3.32,20.81,3.81-.29-.88,1.91-2.85,1.79-3.77-.7-5.46-4.14-10.79-6.46-15.71A219,219,0,0,0,603,337.41c-2.5-1.06-4.75-2.22-6.82-.74-10.71,7.66-10.88,20.95-13.3,33-.11.15-1.36,10.32-1,15.08a100.63,100.63,0,0,1-.5,15.62c-.05.53-.82,24.54-.82,24.54a13.18,13.18,0,0,0,1.82,4.38c5,8.44,10,11.44,10,11.44,10.21-1.25,32.37-4,42.61-5.68,2.23-.37,5.09-1.07,6.42-2.18C635,429.46,627.38,424.45,621.27,420.6Z"/><path class="cls-2" d="M835.4,661.45c0-46.2-1.93-92.36-3.34-138.53-1.32-43.34.6-85.73.6-128.92,0-19.76-1-46.4-1-59.3s-.25-62.82-1.79-93.66c-1.09-21.83-1.37-49.28-1.37-69.4,0,0-17.34-.67-29.13-.24-1.9.06-3.8.11-5.71.15v1.09s.27,49.66.27,74c0,46.19,1.92,92.36,3.33,138.53,1.32,43.34-.6,85.73-.6,128.91,0,19.77,1,46.4,1,59.31s.26,62.81,1.8,93.65c1.08,21.83,1.37,48.28,1.37,68.41h34.83S835.4,685.74,835.4,661.45Z"/><path class="cls-3" d="M793.66,172.64s.27,49.66.27,74c0,46.19,1.92,92.36,3.33,138.53,1.32,43.34-.6,85.73-.6,128.91,0,19.77,1,46.4,1,59.31s.26,62.81,1.8,93.65c1.08,21.83,1.37,48.28,1.37,68.41H785.32c0-20.13-.28-46.58-1.37-68.41-1.53-30.84-1.79-80.75-1.79-93.65s-1-39.54-1-59.31c0-43.18,1.92-85.57.6-128.91-1.41-46.17-3.34-92.34-3.34-138.53,0-24.3-.26-74-.26-74Z"/><path class="cls-4" d="M599.37,442.27c0,4-.09,10,.1,13.91,25,1.4,52.29-5.32,76.87-3.69"/><path class="cls-4" d="M645.25,455.52c-5.28.18-16,6.82-10.42,13.36,4.26,2.91,8.61-9.46,12.42-13.36,2.86,11.16,15.9,16.41,11.64,5-1.35-3.61-8.93-6.06-12.17-6.39-1.87,8.53-5.74,21.8-4.9,28.88"/><path class="cls-4" d="M650,477.79c.43-6.52-1.3-13.73-3.42-19.79"/><path class="cls-4" d="M602.11,457.7c0,40.22-1.37,80.49-1.37,120.82,0,32.05-3,63.74-2.74,95.91.08,10.1-5.71,30.13,9.64,29.31,9.36-.49,24.52-1.44,34-1.44"/><path class="cls-4" d="M639.09,496.6a17.09,17.09,0,0,0,6.16.68"/><path class="cls-4" d="M643.88,498c.16,30.07,1.35,59.67.89,89.81-.39,25.46-.72,50.94-1.15,76.3-.21,12.35-.43,33.43-.43,38s-.15,5.53,5.45,6.3c7.62,1.06,16.91-.19,24.65-.57,7.05-.34,23-.33,31.56-.29a6.09,6.09,0,0,0,6.1-5.67c.48-7.17,1.16-19.48.79-27.53-.44-9.21-.06-18.54-.06-27.76V581.32c0-34.24,1.37-75.3.67-109.53"/><path class="cls-4" d="M714.19,404.13c.14,4.31-.37,9,.63,13.1.84,3.41,6.51,9.85,6.51,9.85-6.51-9.85-25.68-17.77-42.36-24.23-16-6.21-38.14-20.19-54.27-24.68.3,1.89.59,8,.59,8-9.83.85-19.13-3.79-29.26-3.33.53,5.24,9.82,11,13.92,13.5-2.79-1.16-11.8-7.84-14.05-3-2,4.33,12.09,11.79,14.49,14.12-4.08-1-6.28-5.83-10.92-4.81.48,8.54,22.18,17.73,28.37,21.43,20.51,12.27,41.42,25.38,62.88,35.76,13.9,6.72,30.78,19.76,46,15,22.09-6.94,16.42-44.95,14.69-64.49"/><path class="cls-4" d="M709.7,376.06c.26,7,1,14.33,1.29,20.85.33,8,2.82,7.23,10.87,9.19,5,1.22,20.41,3.76,30,2.91a4.47,4.47,0,0,0,4.05-4.83c-1.36-16.82-3.61-38.92-5.38-47.58-2.74-13.42-9-35.6-24.58-41.21a100.78,100.78,0,0,0-36.45-6c-6.09,8.59-8.83,12.33-15.25,20.69-4.32,5.62-10.63,12.53-14,17.31"/><path class="cls-4" d="M682.91,355.91c4.91-1,18.49,0,18.49,0"/><path class="cls-4" d="M688.57,350.48c-1.78,5.61-.69,12.43-.69,18.38"/><path class="cls-4" d="M669.48,347.84a94.29,94.29,0,0,0-19.18.7"/><path class="cls-4" d="M660.31,346.72c-5-9.32-18.65-32.82-18.65-32.82s-3.36-1.86-14.47.93a34.1,34.1,0,0,0-23.88,24.09"/><path class="cls-4" d="M644,317.85c13.15,14.24,33,4.43,42.76-6"/><path class="cls-4" d="M688.75,255.35c-.06,5-.58,18.55-.58,18.55s5.6.11,9.22,3.77c6.59,6.66-3,10.84-9.58,10.48-.37,7.42-.1,21.75-.1,21.75"/><path class="cls-4" d="M641.66,313.9c0-17.64-.07-35.1.9-52.53.3-5.38,1.1-18.68,3.73-22.67"/><path class="cls-4" d="M653.47,264v-4.24"/><path class="cls-4" d="M665.79,263.3v-4.24"/><path class="cls-4" d="M661,277.44c3.48.87,6.55-.71,7.53-4.25"/><path class="cls-4" d="M624.7,378.17s-14.26-28.78-21.39-39.25-23.22-2.63-34.23-1.94c-8,.5-27.31,1.25-27.31,1.25-18.45.86-17.71,26.46-18.42,40.3-1.16,22.59,2.86,42.11-9.65,61.5,11.66,11.24,39.8,5.93,54,5.53,2.17-7,1.92-15.08,3.15-22.26,1.32-7.68,1.24-15.75,1.08-23.52-.51-24.86.89-44.75,20.79-61.14"/><path class="cls-4" d="M643.19,433.67c-10.16,2.24-38.65,5.82-48.39,7a6.34,6.34,0,0,1-5.52-2.1l-9.81-11.1"/><path class="cls-4" d="M599.35,335.26c-17.71,3.08-18,42.25-17.8,56.41.16,15.51,1,26.18-3.53,41.18a42.12,42.12,0,0,0-7,.53"/><path class="cls-4" d="M551.43,336.7c0-7.54,0-15.46,5.32-19.83,4.79-3.91,11.37-3.73,17.28-4,15.09-.76,17.12,7.81,17.12,20.44"/><path class="cls-4" d="M564.44,312.08c-4-13.67-10.76-31.47-10.76-31.47l6.48-1.65c5.55,9.78,12.61,32.41,12.61,32.41"/><path class="cls-4" d="M570.34,326c5.56-1.16,14.58-3.46,19.86,0"/><path class="cls-4" d="M606.21,706.55c0,6.58-1.59,17.13.69,22.62"/><path class="cls-4" d="M653.47,710.79v20.5"/><path class="cls-4" d="M702.77,710.08c0,6.53.32,20.5.32,20.5"/><path class="cls-5" d="M706.78,732.1c.15,3,.1,6.17.1,9.19h-63C640.83,725,706.76,731.78,706.78,732.1Z"/><path class="cls-5" d="M656.15,732.1c.15,3,.1,6.17.1,9.19h-63C590.2,725,656.13,731.78,656.15,732.1Z"/><path class="cls-4" d="M656.35,733.46c0-3.17.54-6.7.82-9.85.22-2.39.24-5.61,1.68-7.57a4.71,4.71,0,0,1,5.93-1.38c3.91,2.36-3.32,11.85-4.64,14.33,4.3-2.43,7.43-8.45,12.68-9.07,4.83-.57,3.77,5.44.69,7.17-4,2.26-10,2.23-13.29,5.16"/><path class="cls-4" d="M610.32,730.58c1.65-4.44,14.13-13.48,8.33-18.2-7.07-5.75-12.13,11.89-13,15.79-1.9-7.26-6-14.87-14.43-13.79-1,13.38,5.68,11.73,15,14.79"/><line class="cls-4" x1="614.27" y1="300.2" x2="614.27" y2="321.44"/><path class="cls-4" d="M835.66,735.41s-.26-49.67-.26-74c0-46.2-1.93-92.36-3.34-138.53-1.32-43.34.6-85.73.6-128.92,0-19.76-1-46.4-1-59.3s-.25-62.82-1.79-93.66c-1.09-21.83-1.37-49.28-1.37-69.4,0,0-17.34-.67-29.13-.24-21.46.78-42.82-.57-64.17.54-26.75,1.4-54.33,2.95-81.13,1.61-18.15-.91-39.8.66-39.8.66V280.9"/><line class="cls-4" x1="708.25" y1="737.65" x2="847.33" y2="737.65"/><line class="cls-4" x1="721.15" y1="153.32" x2="703.42" y2="141.61"/><path class="cls-4" d="M706.37,141.89s11.4-20.27,16.74-28.78c4.15-6.62,6.63-4.85,10.95-2.76.57.28,1.65.92,2.77,1.6a4.5,4.5,0,0,1,1.46,6.23c-3.38,5.41-9.4,15.13-11.59,19.24-2.41,4.5-5.32,9.62-7.22,13.92"/><path class="cls-4" d="M731.46,108.33c.95-1,1.48-2.6,2.55-4l5,2.64-3,4.14"/><line class="cls-4" x1="737.05" y1="104.98" x2="742.38" y2="97.46"/><path class="cls-4" d="M704.1,152.76a58,58,0,0,0,7.26,4.47"/><line class="cls-4" x1="707.75" y1="154.69" x2="712.11" y2="147.71"/><path class="cls-6" d="M724.2,133.94a1.68,1.68,0,0,0,1-.77l9-15.37a2.49,2.49,0,0,0,.27-1.92,2.55,2.55,0,0,0-1.16-1.55l-3-1.77a2.49,2.49,0,0,0-1.92-.27,2.55,2.55,0,0,0-1.55,1.16l-9,15.37a1.67,1.67,0,0,0-.18,1.27,1.7,1.7,0,0,0,.77,1l4.49,2.64h0A1.67,1.67,0,0,0,724.2,133.94Z"/><path class="cls-4" d="M439.43,351a21.89,21.89,0,0,0-.65,11"/><path class="cls-4" d="M445.91,353c-8.71,7-9.82,18.95,1.18,23.87,2.23-9.13,9-15.51,17-19.18,4.92-2.26,19.14-7.41,21.49.58,6.4-2,6.69-19.81.15-22.62-7.75-3.34-22.94,5.48-26.21,12"/><path class="cls-4" d="M449.15,332.93c6.69-4.25,32-15.15,31.12.67"/><path class="cls-4" d="M465.9,325.3c-9.78-5.51-28.33-3.06-45.93-3.06s-29.5.18-44.08,3.31c-8.75,1.87-20.95,4.93-27,12-8.79,10.25-9.9,25.65-9.9,38.73,0,11.09,1.38,25.93,2.6,36.28l13.31-.68"/><path class="cls-4" d="M355.81,367.74c0,18.87-.72,37.36.05,56.18.44,10.57.1,26.28.3,36.2,9.15.68,19.93-.75,29.12-1.69,10.34-1.07,20.39-1.4,30.85-1.65,8-.2,15.68-.11,23.46-.88,4.13-.41,10-.86,13.75-.46"/><path class="cls-4" d="M448.94,372.93c0,18.75,6.3,88.73,6.69,105.43.39,16.52,1.77,40,2,56.47a144.87,144.87,0,0,1-.42,16.65c-.53,5.2-.35,3.36-3.4,7.86-3.91,5.78-5.58,10.35-4,17.15"/><path class="cls-4" d="M484.08,357.44s2.4,35.12,3.29,51.44q1.29,23.76,2.64,47.54c1.6,28.31,1.63,56.45,1.63,84.72,0,13-1.46,28.93-5.26,41.15-5.2,16.69-34.44,19.45-43.57,6.91-5.2-7.16-2.73-30.24,6.4-21.14"/><path class="cls-4" d="M452.27,595.07c4.31-.51,9.49-5.35,9.14-9.71"/><path class="cls-4" d="M466.78,595.77c3.71-2.16,8-7,8.15-11.68"/><path class="cls-4" d="M461.47,466.83a6.24,6.24,0,0,1,1.29-2"/><path class="cls-4" d="M343.49,413.26c0,35.88,1.13,72.13,3.89,107.77.78,10.15,3.88,47.17,13.83,54.49"/><path class="cls-4" d="M349,468.83a1.61,1.61,0,0,1,.65,2"/><path class="cls-4" d="M359.7,461.47c0,53.24,3,108.25.59,161.43-.73,16.18-.59,32.58-1.26,48.73-.42,10.2-.33,30.84-.33,30.84,6,.32,38.83,0,38.83,0"/><path class="cls-4" d="M398.59,514.67c0,46.45,2.15,90.46.14,136.78-.55,12.76-.62,25.72-.79,38.43,0,3.21-1.33,11.33.91,13.92s8.52,1.48,12.06,2c7,0,32,.21,41.87.29a4.24,4.24,0,0,0,4.28-4.07c.4-10,.91-34.15.82-40.75-.19-13.16.61-57.48,1-63.25"/><path class="cls-4" d="M404.82,707.82c0,5.95-.35,21.09-.35,21.09"/><line class="cls-4" x1="445.91" y1="707.82" x2="445.91" y2="729.28"/><path class="cls-4" d="M366.18,703.8v25.45"/><path class="cls-5" d="M363,730.58c12.33,0,68.15-5.67,65.46,10.71H362.3A37.58,37.58,0,0,1,363,730.58Z"/><path class="cls-5" d="M403.56,730.58c12,0,66.21-5.67,63.6,10.71H402.88A38.7,38.7,0,0,1,403.56,730.58Z"/><path class="cls-4" d="M385.53,296.08a5.29,5.29,0,0,0,4.12,3.16c13.9,1.81,25.25-4.52,27.09-20.65.69-6.09-.51-13,.65-19,1.3-6.71,2.79-5.32,9.62-7.14.54-4.16-1.91-9-3.54-12.65,6,.75,16.6-1.42,20.4-6.52,5.17-6.95.26-21.45-8.38-13.09l0-.05a4.13,4.13,0,0,0-4.84-4.78c-5.59,1-14.59,2.82-18.66,4.27-7.75,2.75-17.87,6.1-24.14,11.93-9.23,8.57-5.47,25.16-5.49,36.92C382.37,276.53,381.73,287.48,385.53,296.08Z"/><line class="cls-4" x1="388.87" y1="322.21" x2="389.22" y2="299.79"/><path class="cls-4" d="M437.48,321.53v-28.1c0-4.28-.17-7.38.87-8.71.83-1.07,5.53-1.47,5.53-1.47-3-14-4-29.35-7.69-42.71"/><path class="cls-4" d="M247.16,295.26c.45,7.17,4.57,15.09-4.63,19.53-8.61,4.15-17.24,4.1-26.59,4.58a117.14,117.14,0,0,1-22.89-1c-5.69-.7-12.27-1-11.61-7.68,1.08-11.09,3.21-20.63,5.09-31.05,3.61-20,9-42.18,29.1-50.75,22.86-9.73,49.36,3.44,48,31a165.66,165.66,0,0,1-17.19,1.2C246.44,272.91,246.67,287.41,247.16,295.26Z"/><path class="cls-4" d="M260.91,260c.55,3.45,3.34,17.54,3.94,23.63.2,2-4.41,1.6-4.41,1.6-.35,6.68-.21,41.93-.21,41.93"/><path class="cls-4" d="M216.17,327.79V320"/><path class="cls-4" d="M264.6,358.63l-.11-.05c-4.45-2.06-4.59-8.56-4.6-12.65a34.9,34.9,0,0,1,6.85-20.41c2.76-3.87,7.46-8.24,8.91-1.11C274,316.36,287.88,313,294.1,313s5.29,5.66,3.47,7.62c19.08-7.11,14.14,29.65,2.69,20.07,4.47,3.92,1.28,9.22-3.37,11.42a17.83,17.83,0,0,1-22.51-5.89c-.25,3.32.45,6.08-1.46,9.21C271.14,358.29,267.9,360.09,264.6,358.63Z"/><path class="cls-4" d="M198.36,336.06c-8.21-5.18-23.46-8.12-32.63-1.48-6,4.36-7.95,13.92-2.82,20.12-5.32-4.41-15.31,1.63-8.74,7.2-.74,0-1.59.22-2.34.23-.21,4.79-1.07,10.6,5.44,10.33-.35,9.35,21.16,4.1,25.34,2.07"/><path class="cls-4" d="M187,445.38c0-27.09-8.24-59.72-1.23-86.23"/><path class="cls-4" d="M193,341.85c13.51-13.37,39.31-14.66,49.29-14.66a108.87,108.87,0,0,1,21.95,2.26"/><path class="cls-4" d="M272.17,435.79c-16.16.06-40.7-.05-56.37,3.13-9.66,2-23.62,1.86-31.78,8.47-6.71,5.44-10.13,17.55-12.94,25.73-5.17,15.07-4.78,32.07-6.21,47.69-1.77,19.49-.16,39.32-.61,58.9-.43,18.92-5.35,37.7-6.58,56.57-1.32,20.22-1.86,39.58-2.32,59.14,6.47,5.13,22.09-1.31,29.66-1.16,6.83.13,13.91,2.65,21,1.84,7.38-.85,14.29-4.23,21.41-5.93,14-3.34,26.33,5.32,39.88,2.74,6.63-1.25,12-5.38,19.09-4.47,4,.51,7.63,1.81,11.1,1.81s4.34-1.13,7.41-2.69c1.81-16.21,1.36-32.82,1.35-49.32,0-10.54-2.16-63.37-2.16-63.37"/><path class="cls-4" d="M201.78,441.44c-12.17,15.4-16.92,47.32-16.26,66.61"/><path class="cls-4" d="M214.92,439.15c-15.24,16.29-16.59,52.18-17.53,73.23-.59,13.42.62,26.72.07,40-.5,12.07-2.59,28.76.57,40.31"/><path class="cls-4" d="M197.4,615.3a81.87,81.87,0,0,1-.62,11.63"/><path class="cls-4" d="M229.31,437.27c5.31,4.26,7.25,17.91,7.88,24"/><path class="cls-4" d="M245.58,437c9.84,16.27,10.09,32.2,11.26,51,.8,13,.47,29.67,1.13,42.63"/><path class="cls-4" d="M260.72,437.56c2.32,4.74,2.87,10,4.37,14.86"/><path class="cls-4" d="M281.86,667.64c-.06-17.94-1.25-35.68-1.25-53.63"/><path class="cls-4" d="M220.55,677.33c0-17.62,4.65-34.77,4.38-52.33"/><path class="cls-4" d="M241.2,673.45c-.09-3.67-.69-7.3-.63-11"/><path class="cls-4" d="M265.85,360.09s6.58,66.69,8.25,100.18c1.17,23.26,3,35.17,3.31,58.38"/><path class="cls-4" d="M299.38,350.75s4.2,37.35,5.26,56.44c1,17.44,2.81,34.92,3.51,52.32.59,14.94,1.87,59.92,1.87,59.92"/><path class="cls-4" d="M310.64,541.22c0,17.71,1,33-16.89,39.44-12.3,4.44-31.54,6.54-33.19-10.92-.93-9.85,5.91-13.54,9.67-5.85"/><path class="cls-4" d="M270.6,571.25c0-7,0-18,8-20.14.13-2.73.09-5.53.1-8.29"/><path class="cls-4" d="M284.24,575.52c-.65,2.53-2.07,4.72-3.13,7.11"/><path class="cls-4" d="M295.38,572.87c-.32,1.74-2.58,6.06-3.51,7.53"/><path class="cls-4" d="M163.12,378.18s1.14,59.22,1.76,71.7,2.5,36.85,2.5,36.85"/><path class="cls-4" d="M281.63,441.45a31.56,31.56,0,0,0-2,2.62"/><path class="cls-4" d="M171.75,444.09a7.63,7.63,0,0,0-1.25,2.58"/><path class="cls-4" d="M187.39,695.13c0,7.82.37,14.74,0,22.56-.27,5.72-.26,14.79-.26,14.79"/><path class="cls-4" d="M222.06,693.25c0,14.52-.26,25.76-.26,40.29"/><path class="cls-4" d="M268.73,692.84c.69,12.7-2.48,26.5-1.26,38.76"/><path class="cls-5" d="M184.27,741.29h50.86a23.65,23.65,0,0,0-.33-5.32c-15.25-4.37-35.33-4.44-51.06-3C183.47,736.41,181.85,738.68,184.27,741.29Z"/><path class="cls-5" d="M222.06,741.29h56.65v0a7.35,7.35,0,0,0-5-7.23c-17.4-3.1-36.35-2.34-52.24-1C221.18,736.41,219.37,738.68,222.06,741.29Z"/><path class="cls-4" d="M177.39,595.92c-1.43,19.86-1.78,39.74-3.19,59.52-.73,10.28-3.35,25.9-3.16,35.69"/><path class="cls-4" d="M273.58,537.64c-3-3.8-3.27-19.26-.29-18.42s15.36,1.61,17.16,1.74a51.41,51.41,0,0,0,11.63-.31c4.37-.66,8.1-1.81,11.43-.53s2.79,9.45,2.21,13.22c-1.43,9.41-8.67,9.53-19.71,9.82S276.55,541.44,273.58,537.64Z"/><path class="cls-4" d="M277.49,531.37c-.23-.74,0-1.17.59-1.31"/><path class="cls-4" d="M287.58,534.33l.59-1.3"/><path class="cls-4" d="M286.75,526.6l1.24-.68"/><path class="cls-4" d="M298.06,528.24c.5-.53,1.35-1.44,1.23-.68"/><path class="cls-4" d="M299.51,536c.73-.85,1.48-1.52,1.85-1.34"/><path class="cls-4" d="M306.8,527.37a8.8,8.8,0,0,0,1.2-2"/><path class="cls-4" d="M311.3,531.77l1.87,0"/><path class="cls-4" d="M391.2,467c-.37,0-27.48,1.83-30.67,2,.52,13.17-1,31,16.14,37.06,0,0,13.54-5.87,14.72-18.44C392,481.25,391.43,473.46,391.2,467Z"/><path class="cls-4" d="M363.14,478.25c3.91-.18,10.48-.4,10.48-.4"/><line class="cls-4" x1="382.51" y1="477.43" x2="389.84" y2="477.09"/><path class="cls-4" d="M442.24,466.63c-.37,0-27.53.62-30.73.61-.06,13.18-2.42,31,14.48,37.74,0,0,13.8-5.27,15.52-17.78C442.39,480.89,442.18,473.09,442.24,466.63Z"/><path class="cls-4" d="M414.14,476.66c9,0,18.59-1.19,27.28-.56"/><path class="cls-4" d="M394.07,512.08c2.51.64,6.05,1.22,8.28,1.84"/><path class="cls-7" d="M770.08,491.87c0,11.88-18.51,15.54-22.43,4.34-2.49-7.13-.2-16.45,7.85-17.86C764.3,476.8,770.08,483.3,770.08,491.87Z"/><path class="cls-4" d="M759.36,484.17a4.88,4.88,0,0,1,4.08,4.59"/><path class="cls-4" d="M790,494.74v-7.66"/><line class="cls-4" x1="254.14" y1="274.57" x2="254.14" y2="272.99"/><line class="cls-4" x1="432.14" y1="267.57" x2="432.14" y2="265.99"/><path class="cls-4" d="M643.48,234.71c6.82,11.27,18.12,16,29.32,19.08,5,1.37,16.79,2.47,21.53.43"/><path class="cls-4" d="M688.1,300.56c7.76-.31,15.35-.87,23.09-1.48,4.85-.38,11.68-.45,16.51-.88,1.11-1.42.36-4.55-.11-6.07-1-3.06-3.65-5.87-5.6-8.53-2.94-4-3-7.41-3.38-12.33-.56-6.82-4.25-12.76-8.32-17.82-2.69-3.35-6.57-5.8-8.66-9.58-3.39-6.14-5.61-13.1-9.48-17.09s-14.24-8.74-25.25-8.9-22.81,4-28.38,9.15c-6.66,6.17-7.28,16.49-10.16,23.42-1.42,3.42-4.64,5.24-6.7,8.23-3.75,5.43-1.38,11.76-3.58,17.45-1.35,3.5-5.18,5.4-7.42,8.29-3.15,4.08-4.4,10.31-4.68,15.19,6.51.3,13,1.12,19.43,1.49,5.58.33,10.15.39,15.72.42"/></g></svg>