<svg xmlns="http://www.w3.org/2000/svg" viewBox="0 0 1000 800"><defs><style>.cls-1{fill:none;}.cls-1,.cls-3{stroke:#442257;}.cls-1,.cls-2,.cls-3,.cls-4,.cls-5,.cls-6{stroke-linecap:round;stroke-linejoin:round;stroke-width:4px;}.cls-2{fill:#abdddf;stroke:#abdddf;}.cls-3{fill:#442257;}.cls-4{fill:#fff;stroke:#fff;}.cls-5{fill:#f15d4a;stroke:#f15d4a;}.cls-6{fill:#fab550;stroke:#fab550;}</style></defs><g id="Layer_2" data-name="Layer 2"><path class="cls-1" d="M547.8,735.42h68c2.71-11-18.46-10-24.44-10.35-8-.39-34.32-.6-43.55-.37"/><path class="cls-1" d="M600.51,716.32v6.49"/><path class="cls-1" d="M691.69,371.2c-1.23,5.34,1.45,11.33,4.86,12.58,7.66,2.81,18.56-16.26,23.24-21.72,11.44-13.35,28.65-34.15,42.11-39.93,21.75-9.33,49.13,4.54,66.76,17.37,4.77,3.47,7.74,11.31-.47,11.74-6.08.32-19.18-4.92-24.05-7.87,11.27,5.05,27.2,12,24.48,19.88-2.86,8.28-18.38-1.46-23.78-3,6,2.84,17.78,9.64,14.72,15.55s-18.15-5.62-24.63-8.27c5.53,2.51,17.9,12.92,9.37,15.51-8,2.43-22.81-8.91-29.56-13.14-5.22-3.26-9.1-9.27-9.1-9.27"/><path class="cls-1" d="M653.59,396.17c4.31,20.81,5.41,40,34.71,39.12,28.53-.88,44.13-27,60.42-45.94,4.23-4.94,17.51-19.6,21-23.61"/><path class="cls-1" d="M619.24,199.34c5.87.3,17.08-.9,17.7,8s-10.86,7.48-16.89,7.83l-6.32,28.45,5.69,0"/><path class="cls-1" d="M556.2,238.47c6.57-26.07,12.09-53.55,18.32-79.33A45.41,45.41,0,0,1,581.86,144"/><path class="cls-2" d="M531.27,474.34q.13-4.8.24-9.6c.36-15,1.25-44.2-5.85-51.64-2.4-2.51-5.95-4.09-10.16-5.07v0a21.15,21.15,0,0,1,.71,5.28c-.18,10-8.37,8.58-17.08,9.35-6.54.58-16.56,2.67-22.9.22a12.56,12.56,0,0,1-2.49-1.3h0c-2.91,14.56-5.53,32.74-7,48l-.59,5c13.67-.11,30.39-.19,38.77-.38C511.79,474.05,524.76,474.23,531.27,474.34Z"/><path class="cls-2" d="M600.5,497.22c2.49-.14,5.72-.25,9.11-.34v-.12c0-15.75-.72-27,0-42.76.45-9.81,2.37-32.65,6.42-41.09h0c-2.27-3.36-13.83-4.58-25.45-4.93l.19.88c1.91,16.93-39.29,28.74-43,15.4l0,0c-.25,4.19,0,8.57,0,12.19v61.76C562.6,497.75,589.91,497.79,600.5,497.22Z"/><path class="cls-2" d="M609.63,508.17h0c-17.65.13-43.31.4-61.83.91v205h0c12.52.12,48.11.77,60.45-1.38,2-36.76,1.56-87.18,1.56-96.06C609.81,603.27,609.68,536.21,609.63,508.17Z"/><path class="cls-2" d="M530.82,713.7c-.16-13.71-.52-27.38-.67-41.08-.33-29.84-.19-99.33-.19-129.19,0-19.17.5-38.39,1-57.56-9.91-.06-36.71-.21-60.17-.27l0,.3q2.51,9.66,5,20.44c5.51,24.21,12.25,62.76,16.46,96.51s6.91,64.42,7.32,84c0,0-5.64,2.24-12.18,4.48l.08.71,2.44,18.28,7.39,3.78c12.52.12,33.45-.38,33.45-.38Z"/><path class="cls-2" d="M692,343.7c-.75-9.68-2-21.76-3.3-31.33-1.65-12.24-3.78-23.91-7.87-35.73-9.84-28.45-31.34-33.47-57-34l-2.31,0c-10,8.16-19.12,14.19-28.72,23.31-3.14,3-6.33,5.77-9.54,8.52l-1.37-1.8c-1.65-2.58-28.38-37.11-28.38-37.11a70.57,70.57,0,0,0-29.1,5.31,166.42,166.42,0,0,0-27.12,15.58,294.48,294.48,0,0,0-29.2,24.52s-1.28-.75,1.28,2c7.68,8.2,11.22,21.48,12.38,32.27.56,5.22,1,10.46,1.24,15.71.16,3.62.22,7.24.24,10.86l.92-.57c3.29-2.13,15.49-8,20.56-10.1-5.49,8.62-9.91,20.9-9.91,20.9l-.21,1.1c3,.21,6,.47,7.94.77,5.65.86,11.24,1.6,17.83,4.76l-1.76,1.73s27.44,7.78,41,12.53c11.13,3.9,25.8,8.27,31.22,19l.27.48q9.44,0,18.74,0c7.35,0,12.76,1.38,16.76,3.88h0s9.88-20,16.05-32.72h0A209.46,209.46,0,0,0,650,398.32c10.41-9.21,42-26.28,43-29.34S692.76,354.1,692,343.7Z"/><path class="cls-1" d="M530.21,735.42H457.32V724.7c9.23-.23,55.57,0,63.55.37,2,.1,5.51.07,9.34.36"/><line class="cls-1" x1="594.02" y1="182.61" x2="594.45" y2="178.12"/><path class="cls-1" d="M579.55,198.08c5.21,3.85,14.13,3.69,18-4.29"/><path class="cls-1" d="M618.35,197.21c-8.77-13.36,1.8-37-7.71-47-4.86-5.12-27.69-2.65-31.84-9.45-3.73-6.12-1.08-10-.2-17.92,17.3,3.5,52.16,4.2,58.44,24.07C639.47,154.56,632.51,207.22,618.35,197.21Z"/><line class="cls-1" x1="595.64" y1="304.52" x2="628.89" y2="304.52"/><path class="cls-1" d="M658.21,332c-1.92,7.13-6.38,20.37-9.52,27-1,2.13-2.94,6.1-5.21,10.76"/><path class="cls-1" d="M783.62,326c8.76,5.54,24.25,16.79,20.42,25.45s-14.81-1.33-21.17-5.89c2.19,3.57,3.47,10.31-2.34,11.07"/><path class="cls-1" d="M471.11,203c2.12,13.84,0,29.78-1.35,37.83a154.68,154.68,0,0,1-12,39.11"/><path class="cls-1" d="M412.4,272a87.6,87.6,0,0,0,3.93-19.51c-23.51,1.53-11.83-31.19,4.83-22.05l.56-5.56"/><path class="cls-1" d="M421.86,217.67C433,222,446.3,197,447.93,188.6c6.35.16,19.05,9.84,24.08,14.24,7.25-13.44,4.6-27.26-9.6-33.6-9.57-4.28-16.79-5-23.09-3.23-6.73,1.91-13.41,4.13-21.1,11.44-6.86,6.51-11.61,17.17-11,26.82.41,5.93,7,21.16,14.45,20.58C422,223.76,422.42,222.79,421.86,217.67Z"/><path class="cls-1" d="M424.84,171.77c4.53-8.89-14.08-17.83-17.08-6.69-6-14.73-20.13,7.79-20.57,15.11-.54,9,10.95,27.68,20.46,17.61"/><path class="cls-1" d="M419.13,350.28a245.12,245.12,0,0,0,4.14-59.83,21.84,21.84,0,0,0-22-20.43c-1.79,0-3.56.09-5.26.17-14.28.65-24.56,5.77-35.46,15.15-18.55,16-30.15,36.24-37,59.54-8.3,28.05-9.27,57.09-9.27,85.82,22.3.51,43.77,3,53.55,3.66,13.44.94,27.6,1.77,42.25,1.77,0,0,3.79-26,4.81-33.64"/><path class="cls-1" d="M362.1,312.36c-4.74,23.29-9.48,47.06-11.42,70.85-.92,11.31-1.21,22.19,9.24,24.21,13.81,2.66,28.08.6,45.24-2.74,10.58-2.05,19-4.74,33.27-9.5,7.5-16.84,10.45-29.32,27.33-39.66-14.38-2.71-24.87-4.29-39.59-4.24-8.89,0-39.13-5-36.45,10.45,18.31.54,18.9-27,17.49-38.83"/><path class="cls-1" d="M421.11,282.35c10.62,10.33,25.76,10.36,36.68-2.43-.85,14.31-2.85,31.11-4.91,45.37-1,7.09-2.8,19.19-3.46,24.37"/><path class="cls-1" d="M460.22,276.68c14.17,5.29,20,24.11,21.5,38.49.56,5.22,1,10.46,1.24,15.71.2,4.38.26,8.76.25,13.14,0,2.48-.15,6-.08,8.46,0,0,13.71.49,19.37,1.36s11.24,1.6,17.83,4.76c-4.84,5-13.9,11.63-14.7,18.63"/><path class="cls-1" d="M320.15,432.08s-.25,46.35.59,69.62c.8,22.2.77,45.07,1.47,67.16,1,31.28-.47,116.08,1.09,147,8,2.82,42.45.71,50.64,1,7.57.28,9.67.81,10.06-5.67.6-10.37,1.65-37,1.62-47.3-.12-33.08,1.46-106.39,2.42-139.59.6-20.4,3-67.36,3-67.36"/><path class="cls-3" d="M324.15,740H391c1.83-16.81-54.51-12-66-11C324.85,731.55,324.59,737.44,324.15,740Z"/><line class="cls-1" x1="327.57" y1="716.96" x2="327.57" y2="727.92"/><line class="cls-1" x1="373.91" y1="717.7" x2="373.61" y2="728.67"/><path class="cls-1" d="M467.77,474.59C462,454,456.25,437.67,451.39,425.08"/><path class="cls-1" d="M451.64,700.73c8.18-2,17.8-4.36,23.88-5.82,9.49-2.28,24.07-8.08,24.07-8.08-.41-19.56-3.11-50.24-7.32-84s-10.95-72.3-16.46-96.51q-2.46-10.79-5-20.44"/><path class="cls-1" d="M390,478.39c9.18,13.42,13,28.12,17.49,43.82,5.62,19.48,16.73,76.4,20.05,96.32,2.92,17.47,5.24,37.9,6.87,57.41"/><path class="cls-3" d="M453.39,723.19s18.44-6.6,28.89-10c7-2.26,25.87-7.19,25.45,4.77-9.59,2.85-43.61,16.3-54.3,19.24Z"/><line class="cls-1" x1="487.49" y1="692.02" x2="489.93" y2="710.3"/><path class="cls-1" d="M465.09,357c18.76,4.54,43.4,21,56.22,34.67"/><path class="cls-1" d="M504.61,421.56c-5-3.69-9.31-13.51-10.84-16.88"/><path class="cls-1" d="M488.6,423.45c-3.53-3.67-7.66-10.32-9.58-13.43"/><path class="cls-1" d="M518.57,360.33s27.44,7.78,41,12.53c11.13,3.9,25.8,8.27,31.22,19"/><path class="cls-1" d="M552.36,412c4.25,5.92.9,13.24,10.44,13.08,8.33-.13,11.55-9,10.93-16.34"/><path class="cls-1" d="M590.78,408.86c1.91,16.93-39.29,28.74-43,15.4"/><path class="cls-1" d="M367.4,278.56c-6-4.19-21.74-1.05-26.45.91-8.71,3.63-16.94,10.87-20.36,19.71-5.1,13.18-4.58,28.45,1.82,38.46"/><path class="cls-1" d="M323.08,310.29c.08,5.64.72,12.76,4.88,17"/><path class="cls-1" d="M329.63,298.38c-.74,3.74,1.45,16.75,4.22,19.4"/><path class="cls-1" d="M450.49,230.46v-3.25"/><path class="cls-1" d="M460.22,230v-3.24"/><path class="cls-1" d="M444.81,243.05c.56,3.17,6.72,4.72,9.92,4.25"/><path class="cls-1" d="M413.19,239.38a25.35,25.35,0,0,0,3.24,2.43"/><path class="cls-1" d="M399,199.26c-2.85-4.68-2.56-15.73-.41-20.29"/><path class="cls-1" d="M549.8,498.34c13.23-.61,39.06-.5,50.7-1.12,9.39-.51,29.27-.66,29.27-.66V508s-49.6.2-80,1.14"/><path class="cls-1" d="M451.24,485.58c.51,19.26,1,38.58,1,57.85,0,29.86-.36,99.35-.19,129.19.14,22.87-1.1,45.69-.56,68.67H434.41V436.43c0-16.84.86-33.06,12.92-40.26l8.34,3.05,2.48,2.31,4.52,7.32a16,16,0,0,0-7.94,5.25c-5.54,7.16-4.38,35.68-4,50.64q.12,5,.25,10"/><path class="cls-1" d="M529.92,485.9s-56.53-.41-85.23-.31c-.46-4.16,0-6.43.32-10.61,1.77-.44,44.68-.4,59.93-.76,9.39-.23,25.27.2,25.27.2"/><path class="cls-1" d="M515.5,408c4.21,1,7.76,2.56,10.16,5.07,7.1,7.44,6.21,36.68,5.85,51.64-.62,26.15-1.55,52.46-1.55,78.69,0,29.86-.14,99.35.19,129.19.25,22.87,1.1,45.69.56,68.67H547.8V436.43c0-6.36-.86-15.08,1.82-21,2.51-5.52,9.35-6.58,14.66-7.17,0,0,46.93-2.55,51.76,4.61s4.85,36.87,4.48,51.83q-.37,15.93-.47,31.93"/><path class="cls-1" d="M620,508.25c0,11.73,0,23.46,0,35.18,0,29.86.48,99.35.19,129.19-.22,22.87,1.11,45.69.56,68.67h17.09V436.43c0-22.7.45-44.28-28-44.13-13.41.07-27.07,0-40.81,0l-60.37,0"/><path class="cls-1" d="M664.42,252.94c2.55,9.28-3.87,25-6.34,33.47"/><path class="cls-1" d="M530,248.3c-4.49,12-10,23.76-14.6,35.68"/><path class="cls-1" d="M507.27,284a16.83,16.83,0,0,0-1.65,4.86"/><path class="cls-1" d="M351.87,292.25c-1.88,0-4,.23-5.66-.34,0,2.25.29,4.51.3,6.85"/><path class="cls-4" d="M623.22,317.65c-10.09.09-19.68-3-29.87-.84-1.58,8.62-2.54,16.87-4,25.54-.94,5.45-2.52,17.38-2.52,17.38L618.23,362c1.13-.09,7.25-39.4,6.48-44.35C624.21,317.64,623.72,317.65,623.22,317.65Z"/><path class="cls-5" d="M617,337.13l0-4a58.1,58.1,0,0,1-7.43-.45,65,65,0,0,0,.86-8l-4-.12a60.55,60.55,0,0,1-.83,7.62,72.19,72.19,0,0,0-8.14-.57v4a67.17,67.17,0,0,1,7.5.52A69.36,69.36,0,0,0,604,344l4,.18a69.47,69.47,0,0,1,.89-7.59,66.9,66.9,0,0,0,7.54.51Z"/><path class="cls-1" d="M593.2,355c1.52-.22,4.27-1.11,5.75-.77a5,5,0,0,1,1.8,1.57c1.65.1,3-1.51,4.84-1.79,3.91-.58,1.34.58,3.77,2.07,1.06.65,2.7-.1,4.14,1.22"/><line class="cls-1" x1="579.74" y1="181.61" x2="580.18" y2="177.12"/><path class="cls-1" d="M573.62,568.76c1.33,6.84,5.21,13.08,6.89,19.54"/><line class="cls-1" x1="593.15" y1="567.61" x2="591" y2="576.21"/><path class="cls-1" d="M501.43,383.78c6.73,4.84,14.93,21.33,14.77,29.51-.18,10-8.37,8.58-17.08,9.35-6.54.58-16.56,2.67-22.9.22-6-2.3-9.85-9.42-13.25-14.39-2.13-3.11-4.22-7.09-7.3-9.25s-10.73-4-17.24-4"/><path class="cls-1" d="M571.09,391.83c-.43-1-2.15-4.07-2.15-4.07"/><path class="cls-1" d="M574.53,272.25c6.11.17,12.24-.19,18.38-.19"/><path class="cls-1" d="M413.89,418.16c6.26.24,17.15-1.09,21.89-5.38"/><path class="cls-1" d="M608.62,317.17s.67-9.31,4-14.27"/><path class="cls-6" d="M343.68,578.55c-3-5.72-9-13-11.41-2.67-.78,3.33-.44,7-.22,10.46-.55,0-1,.08-1.23.08-2.07,0-4.86,0-7.54.22-.72-1.33-1.42-2.6-2-3.74-1.83-3.85-10.74-20.19-14-9.49-3.17,10.45-2.49,21.65-7,31.83-3,6.74-8.15,15.44-15.85,17.39-5.77,1.47-12,.53-17.87.71-7.42.21-15.3,1.15-22.75,1.43-8.5.31-17.87,0-26.26,1.36-2.82.44-6.35.79-9.49,1.59a28.8,28.8,0,0,1-3.95-2.48l-.77-.56a8.34,8.34,0,0,1-.75-.58l-1.49-1.25c-1-.89-1.94-1.76-2.82-2.75s-1.78-2-2.64-3-1.65-2.12-2.37-3.25a45.12,45.12,0,0,1-3.91-7c-.28-.59-.5-1.16-.74-1.76s-.45-1.19-.63-1.81l-.28-.91-.25-.93c-.19-.62-.3-1.25-.44-1.88a32,32,0,0,1-.65-7.49,21.35,21.35,0,0,1,1.31-6.8,6.21,6.21,0,0,1,.31-.75c.12-.25.2-.47.34-.75.33-.61.65-1.22,1-1.84.69-1.23,1.45-2.47,2.25-3.74,1.59-2.53,3.35-5.16,5.07-8a66.79,66.79,0,0,0,4.8-9.19,41.68,41.68,0,0,0,1.78-5.15,37,37,0,0,0,1.1-5.49,27.86,27.86,0,0,0,.16-5.95A21.13,21.13,0,0,0,203,538a17.35,17.35,0,0,0-4.14-5.86c-.46-.39-.89-.8-1.39-1.16s-1-.71-1.54-1-1.05-.54-1.58-.8-1-.42-1.57-.63a24.2,24.2,0,0,0-6.15-1.22,29.85,29.85,0,0,0-5.91.21,27.07,27.07,0,0,0-5.8,1.45,20.82,20.82,0,0,0-5.79,3.18l-.14.11-.28.24a6.07,6.07,0,0,0,8.11,9,8.11,8.11,0,0,1,2.34-1.32,14.17,14.17,0,0,1,3.23-.84,17,17,0,0,1,3.41-.14,12,12,0,0,1,3,.6l.6.24a3.4,3.4,0,0,0,.5.26,4.85,4.85,0,0,0,.4.28c.13.09.25.24.38.35a4.75,4.75,0,0,1,1.16,1.74,9.57,9.57,0,0,1,.52,2.64,16.43,16.43,0,0,1-.2,3.36,24,24,0,0,1-.89,3.63,28,28,0,0,1-1.42,3.6,38.65,38.65,0,0,1-1.89,3.59c-.68,1.19-1.47,2.39-2.29,3.58-1.65,2.4-3.49,4.85-5.37,7.49-.93,1.32-1.88,2.67-2.8,4.11-.46.7-.91,1.45-1.36,2.19-.24.4-.49.88-.73,1.32s-.49.9-.68,1.36a35.77,35.77,0,0,0-3.1,11.25,47,47,0,0,0,.06,11.13,54.38,54.38,0,0,0,2.4,10.73l.89,2.55,1,2.48c.32.84.72,1.63,1.08,2.44l.56,1.22.61,1.18.61,1.18c.2.4.41.79.64,1.18l1.32,2.31c.95,1.51,1.87,3,2.92,4.5s2.13,2.9,3.25,4.34l1.77,2.09c.29.36.6.7.92,1l.95,1,1,1,1,1,1.49,1.39c-.28,1.11-.51,2.24-.71,3.36-1.46,8.65-1,17.2-.71,25.7.22,7-1.61,11.94-3.25,18.54-1.8,7.25-1.67,15.06-1.66,22.6,0,10.86-.37,26.21-.37,26.21h27.52s.6-17.33,2-24.39c1-4.87,1.83-7.28,6.56-9.61s9.78-3.89,13.73-7.42a23.78,23.78,0,0,0,3.92-4.54,101,101,0,0,0,16.5,3.05,66.42,66.42,0,0,0,24.56-1.94c.58.91,1.14,1.77,1.67,2.56a8.27,8.27,0,0,0,6.3,3.93c-.21,2.83-.45,5.65-.65,8.44-.63,8.87-1.73,29.92-1.73,29.92h22.18c0-4-3-5.8-5.52-7.54,1.88-5.72,4.42-13.24,6-17.06q3.07-7.27,6.13-14.61a35.62,35.62,0,0,1,6.66,3.62c3,2.06,5.62,4,9.33,2.32,2.91-1.29,6.21-5.47,6-8.78-.27-4-4.51-10.42-7.77-12.67a18.71,18.71,0,0,0-6.71-2.75c4.31-10.72,15.41-31,19.83-41.63C353.06,618.8,357,604.22,343.68,578.55Z"/><path class="cls-1" d="M330.64,614.17c2.42,2.15,5.72,2.38,8-.41s1.31-5,1-8.32c.87,2.59.44,6.12,2.75,7.89,2.95,2.27,6.31.64,6.67-2.52"/><line class="cls-1" x1="327.43" y1="599.71" x2="328.29" y2="603.34"/><line class="cls-1" x1="345.88" y1="598.33" x2="346.73" y2="601.96"/><path class="cls-1" d="M278.62,695.92a56.83,56.83,0,0,1-9.15-17.84"/><path class="cls-1" d="M312.34,666.92c0,3.36,1.11,7.62,2,10.87,3.43.28,7.24.74,10.61,1"/><path class="cls-1" d="M330.79,699.73c1.14,1.32,2.39,2.7,2.72,4.38"/><path class="cls-1" d="M334.65,696.29c1.14,1.32,2.38,2.7,2.71,4.38"/><path class="cls-1" d="M290.55,705.89c8.35-1.32,17.88-5,25.75-.83"/><path class="cls-1" d="M226.62,691.71c3.21,2.13,9.08,4.26,12.89,4.21"/><path class="cls-1" d="M204.82,740.29c0-7.68,1-22.5,2.5-28.17s11.22-10.18,16.78-17.46a33.09,33.09,0,0,0,6.78-15.07"/><path class="cls-1" d="M312.49,579.77v5.74"/><path class="cls-1" d="M337.53,578.7a8.65,8.65,0,0,0,0,4.6"/><line class="cls-1" x1="307.02" y1="736.96" x2="308.17" y2="739.26"/><line class="cls-1" x1="302.02" y1="736.96" x2="303.17" y2="739.26"/><line class="cls-1" x1="211.89" y1="738.22" x2="211.89" y2="740"/><line class="cls-1" x1="199.89" y1="738.22" x2="199.89" y2="740"/><line class="cls-1" x1="194.89" y1="738.22" x2="194.89" y2="740"/></g></svg>